<svg id="Icons" enable-background="new 0 0 512 512" height="512" viewBox="0 0 512 512" width="512" xmlns="http://www.w3.org/2000/svg"><g><circle cx="256" cy="256" fill="#53b976" r="256"/><g><g><g><path d="m306.85 214.341c0-134.549-12.08-183.532-21.609-201.24-2.369-4.402-9.076-1.908-8.061 2.986 5.343 25.767 13.221 90.822-9.493 198.254z" fill="#3e4e60"/><g fill="#2e3140"><path d="m306.78 196.59h-35.54c.85-4.51 1.65-8.93 2.39-13.27h32.99c.07 4.32.12 8.74.16 13.27z"/><path d="m306.14 161.42h-29.11c.64-4.52 1.21-8.95 1.73-13.27h26.94c.17 4.29.31 8.71.44 13.27z"/><path d="m304.68 126.25h-23.68c.39-4.56.71-8.98.97-13.27h21.88c.3 4.26.58 8.68.83 13.27z"/><path d="m282.87 91.09c.09-4.61.11-9.04.07-13.28h17.68c.5 4.19.98 8.61 1.43 13.28z"/><path d="m297.5 55.92h-15.31c-.29-4.75-.66-9.18-1.07-13.27h13.83c.87 4.01 1.73 8.42 2.55 13.27z"/><path d="m288.69 20.75h-10.6c-.31-1.68-.61-3.23-.91-4.66-1.01-4.9 5.69-7.39 8.06-2.99 1.12 2.09 2.28 4.61 3.45 7.65z"/></g></g><g><path d="m205.15 214.341c0-134.549 12.08-183.532 21.609-201.24 2.369-4.402 9.076-1.908 8.061 2.986-5.343 25.767-13.221 90.822 9.493 198.254z" fill="#2e3140"/><g fill="#151516"><path d="m205.22 196.59h35.54c-.85-4.51-1.65-8.93-2.39-13.27h-32.99c-.07 4.32-.12 8.74-.16 13.27z"/><path d="m205.86 161.42h29.11c-.64-4.52-1.21-8.95-1.73-13.27h-26.94c-.17 4.29-.31 8.71-.44 13.27z"/><path d="m207.32 126.25h23.68c-.39-4.56-.71-8.98-.97-13.27h-21.88c-.3 4.26-.58 8.68-.83 13.27z"/><path d="m229.13 91.09c-.09-4.61-.11-9.04-.07-13.28h-17.68c-.5 4.19-.98 8.61-1.43 13.28z"/><path d="m214.5 55.92h15.31c.29-4.75.66-9.18 1.07-13.27h-13.83c-.87 4.01-1.73 8.42-2.55 13.27z"/><path d="m223.31 20.75h10.6c.31-1.68.61-3.23.91-4.66 1.01-4.9-5.69-7.39-8.06-2.99-1.12 2.09-2.28 4.61-3.45 7.65z"/></g></g></g><g><path d="m444.602 130.173c-5.847-8.156-16.615-11.089-25.791-7.028l-61.753 27.333c-7.873 3.485-12.951 11.285-12.951 19.895 0 14.925-6.208 29.178-17.137 39.343l-8.05 7.488c-3.677-1.844-7.727-2.864-12.07-2.864h-101.7c-4.343 0-8.393 1.02-12.07 2.864l-8.05-7.488c-10.929-10.165-17.137-24.418-17.137-39.343 0-8.61-5.077-16.41-12.951-19.895l-61.753-27.333c-9.176-4.062-19.944-1.128-25.791 7.028-5.239 7.307-5.295 17.126-.138 24.493l42.71 61.014c9.358 13.368 22.839 23.302 38.38 28.278l24.114 7.723c-.729 6.219-.563 12.839.668 19.564l33.01 180.239c3.481 19.005 19.409 32.657 37.164 32.657h25.389c17.755 0 33.684-13.652 37.165-32.657l19.654-107.298 12.61-68.86.746-4.08c1.231-6.725 1.398-13.344.668-19.564l24.114-7.723c15.541-4.977 29.022-14.91 38.38-28.278l42.71-61.014c5.155-7.367 5.099-17.186-.14-24.494z" fill="#c68132"/><path d="m338.869 271.245-.746 4.081-12.61 68.86-19.654 107.298c-.302 1.643-.695 3.239-1.176 4.789-5.042 16.455-19.723 27.868-35.988 27.868h-12.695v-269.8h50.85c22.64 0 37.402 27.499 32.019 56.904z" fill="#dd8c29"/></g><g><g><g><path d="m307.215 228.092 19.756-18.375c10.929-10.165 17.137-24.418 17.137-39.343 0-8.61 5.077-16.41 12.951-19.895l61.753-27.333c9.176-4.062 19.944-1.128 25.791 7.028 5.239 7.307 5.295 17.126.138 24.493l-42.71 61.014c-9.358 13.368-22.839 23.301-38.38 28.278l-26.757 8.569z" fill="#dd8c29"/></g><path d="m427.536 135.33h-.16c-1 0-1.97.21-2.9.62l-25.47 11.27-36.28 16.06c-2.7 1.2-4.49 3.83-4.61 6.76-.41 9.49-2.37 18.78-5.98 27.31-3.6 8.53-8.85 16.31-15.8 22.78-2.01 1.86-3 4.38-3 6.89 0 2.7 1.15 5.39 3.43 7.26 1.95 1.61 4.59 2.12 7 1.35l15.44-4.95c11.36-3.64 21.37-10.5 28.84-19.71v-.01c.92-1.12 1.79-2.27 2.62-3.46l42.61-60.86c3.33-4.55-.15-11.31-5.74-11.31z" fill="#fff"/><path d="m380.57 209.312c3.41.756 4.663 5.033 2.132 7.44-6.642 6.318-14.661 11.097-23.497 13.928l-15.44 4.95c-2.41.77-5.05.26-7-1.35-2.28-1.87-3.43-4.56-3.43-7.26 0-2.51.99-5.03 3-6.89 6.95-6.47 12.2-14.25 15.8-22.78 3.61-8.53 5.57-17.82 5.98-27.31.12-2.93 1.91-5.56 4.61-6.76l20.985-9.289c3.735-1.653 7.133 2.884 4.496 6.003l-12.178 14.404c-1.727 2.043-.275 5.172 2.4 5.172h9.219c3.679 0 5.26 4.667 2.339 6.903l-17.603 15.942c-1.891 1.713-1.062 4.846 1.429 5.398z" fill="#3e4e60"/><path d="m366.768 153.688c1.517 3.613 5.704 5.278 9.287 3.692l31.104-13.767c3.778-1.672 5.293-6.235 3.266-9.835-1.769-3.142-5.635-4.426-8.932-2.966l-31.104 13.767c-3.487 1.543-5.097 5.593-3.621 9.109z" fill="#f39e22"/></g><g><path d="m78.724 146.64 42.61 60.86c.83 1.19 1.7 2.34 2.62 3.46v.01c7.47 9.21 17.48 16.07 28.84 19.71l15.44 4.95c2.41.77 5.05.26 7-1.35 2.28-1.87 3.43-4.56 3.43-7.26 0-2.51-.99-5.03-3-6.89-6.95-6.47-12.2-14.25-15.8-22.78-3.61-8.53-5.57-17.82-5.98-27.31-.12-2.93-1.91-5.56-4.61-6.76l-36.28-16.06-25.47-11.27c-.93-.41-1.9-.62-2.9-.62h-.16c-5.59 0-9.07 6.76-5.74 11.31z" fill="#c2aacf"/><path d="m131.43 209.312c-3.41.756-4.663 5.033-2.132 7.44 6.642 6.318 14.661 11.097 23.497 13.928l15.44 4.95c2.41.77 5.05.26 7-1.35 2.28-1.87 3.43-4.56 3.43-7.26 0-2.51-.99-5.03-3-6.89-6.95-6.47-12.2-14.25-15.8-22.78-3.61-8.53-5.57-17.82-5.98-27.31-.12-2.93-1.91-5.56-4.61-6.76l-20.985-9.289c-3.735-1.653-7.133 2.884-4.496 6.003l12.178 14.404c1.727 2.043.275 5.172-2.4 5.172h-9.219c-3.679 0-5.26 4.667-2.339 6.903l17.603 15.942c1.891 1.713 1.062 4.846-1.429 5.398z" fill="#2e3140"/><path d="m145.232 153.688c-1.517 3.613-5.704 5.278-9.287 3.692l-31.104-13.767c-3.778-1.672-5.293-6.235-3.266-9.835 1.769-3.142 5.635-4.426 8.932-2.966l31.104 13.767c3.487 1.543 5.097 5.593 3.621 9.109z" fill="#dd8c29"/></g></g><g><g><path d="m304.683 456.273c-5.042 16.455-19.723 27.868-35.988 27.868h-12.695v-72.568h17.355c-.58 22.774 12.981 40.648 31.328 44.7z" fill="#fff"/><path d="m207.317 456.273c5.042 16.455 19.723 27.868 35.988 27.868h12.695v-72.568h-17.355c.58 22.774-12.981 40.648-31.328 44.7z" fill="#c2aacf"/></g><g><g><path d="m338.123 275.325-12.61 68.861-52.153 76.187-18.597-15.267z" fill="#fff"/></g><g><path d="m173.882 275.325 12.609 68.861 52.152 76.187 18.598-15.267z" fill="#c2aacf"/></g></g><g><g><path d="m281.543 408.968-.891 23.9c-.222 5.959-4.821 10.709-10.278 10.709h-28.748c-5.457 0-10.056-4.75-10.278-10.709l-.891-23.9c-.605-16.217 10.815-29.946 25.543-29.946s26.148 13.729 25.543 29.946z" fill="#dd8c29"/><path d="m281.543 408.968-.891 23.9c-.222 5.959-4.821 10.709-10.278 10.709h-14.374v-64.555c14.728 0 26.148 13.729 25.543 29.946z" fill="#f39e22"/></g><g><path d="m304.562 464.623c-1.046-2.556-3.965-3.78-6.521-2.733-3.567 1.46-8.435 3.172-9.717 3.295-3.925.341-10.908-.81-17.069-1.826-3.632-.599-7.134-1.176-10.255-1.52v-8.364c0-2.761-2.239-5-5-5s-5 2.239-5 5v8.364c-3.121.344-6.623.92-10.255 1.52-6.161 1.016-13.143 2.169-17.068 1.826-1.157-.111-5.698-1.65-9.718-3.295-2.552-1.044-5.474.179-6.521 2.734-1.045 2.556.178 5.475 2.733 6.521 2.112.865 9.266 3.708 12.636 4.002 5.183.451 12.493-.755 19.565-1.922 5.09-.839 10.353-1.708 13.627-1.708s8.538.868 13.627 1.708c6.032.995 12.238 2.019 17.147 2.019.847 0 1.656-.031 2.418-.097 3.37-.293 10.524-3.137 12.637-4.002 2.557-1.047 3.78-3.967 2.734-6.522z" fill="#151516"/><g><path d="m256 442.8v10.675c-.187.247-.385.481-.596.702-3.111 3.267-8.154 3.267-11.323 0l-2.613-2.689-6.238-6.413c-3.294-3.396-3.5-8.97-.399-12.454 1.566-1.759 3.664-2.642 5.794-2.642s4.269.883 5.916 2.642l8.851 9.452c.216.236.418.478.608.727z" fill="#151516"/><path d="m276.77 445.075-8.851 9.102c-3.169 3.267-8.212 3.267-11.323 0-.211-.221-.409-.455-.596-.702v-10.675c.19-.249.392-.491.607-.727l8.851-9.452c1.647-1.759 3.786-2.642 5.917-2.642s4.228.883 5.794 2.642c3.101 3.483 2.895 9.058-.399 12.454z" fill="#2e3140"/></g></g></g><g><g><path d="m345.519 310.001c8.559 4.942 11.537 15.826 6.717 24.424-.03.079-.071.151-.113.224l-6.276 10.871c-2.488 4.31-6.493 7.214-10.955 8.41-4.469 1.208-9.378.701-13.699-1.794-8.03-4.636-11.155-14.514-7.537-22.81.268-.632.58-1.254.927-1.856l6.276-10.871c2.495-4.322 6.505-7.208 10.967-8.403 4.463-1.197 9.371-.691 13.693 1.805z" fill="#3e4e60"/><path d="m345.519 310.001c8.559 4.942 11.537 15.826 6.717 24.424-9.649 5.119-22.208 5.075-33.03-1.173-2.01-1.161-3.868-2.474-5.55-3.927.268-.632.58-1.254.927-1.856l6.276-10.871c2.495-4.322 6.505-7.208 10.967-8.403 4.463-1.196 9.371-.69 13.693 1.806z" fill="#2e3140"/><path d="m329.844 317.329-3.776 6.541c-1.626 2.816-.661 6.418 2.155 8.044 2.816 1.626 6.418.661 8.044-2.155l3.776-6.541c1.626-2.816.661-6.418-2.155-8.044-2.817-1.627-6.418-.662-8.044 2.155z" fill="#fff"/></g><g><path d="m166.481 310.001c-8.559 4.942-11.537 15.826-6.717 24.424.03.079.071.151.113.224l6.276 10.871c2.488 4.31 6.493 7.214 10.955 8.41 4.469 1.208 9.378.701 13.699-1.794 8.03-4.636 11.155-14.514 7.537-22.81-.268-.632-.58-1.254-.927-1.856l-6.276-10.871c-2.495-4.322-6.505-7.208-10.967-8.403-4.463-1.197-9.371-.691-13.693 1.805z" fill="#3e4e60"/><path d="m166.481 310.001c-8.559 4.942-11.537 15.826-6.717 24.424 9.649 5.119 22.208 5.075 33.03-1.173 2.01-1.161 3.868-2.474 5.55-3.927-.268-.632-.58-1.254-.927-1.856l-6.276-10.871c-2.495-4.322-6.505-7.208-10.967-8.403-4.463-1.196-9.371-.69-13.693 1.806z" fill="#2e3140"/><path d="m182.156 317.329 3.776 6.541c1.626 2.816.661 6.418-2.155 8.044-2.816 1.626-6.418.661-8.044-2.155l-3.776-6.541c-1.626-2.816-.661-6.418 2.155-8.044 2.817-1.627 6.418-.662 8.044 2.155z" fill="#fff"/></g></g><g><path d="m256 316.297c31.709 0 60.726-25.706 60.726-57.415 0-17.98-14.575-32.555-32.555-32.555h-28.171z" fill="#f39e22"/><path d="m256 316.297c-31.709 0-60.726-25.706-60.726-57.415 0-17.98 14.575-32.555 32.555-32.555h28.171z" fill="#dd8c29"/></g></g></g></g></svg>