<svg xmlns="http://www.w3.org/2000/svg" viewBox="0 0 300 270" fill="#fff" xmlns:xlink="http://www.w3.org/1999/xlink"><path d="m14.7 43.5c8-.1 16-.2 24 0 6 8.5 11.2 17.8 16.9 26.6 23.9 38.2 47.8 76.5 71.6 114.8 1.2 1.5.8 3.4.9 5.1-.1 12.1.1 24.2-.1 36.3-1.5-.5-2.4-1.9-3.2-3.1-36.2-58.5-72.4-117-108.6-175.4-1.1-1.2-1.4-2.8-1.5-4.3" id="0"/><path d="m137.8 13.3c2.4 0 4.8 0 7.3 0 0 80.3 0 160.5 0 240.8-2.4 0-4.8 0-7.3 0 0-80.3 0-160.6 0-240.8"/><path d="m154 43.5l58.9-.1c14.5 1.2 22.1 4.9 28.4 9.9 10.4 7.9 16 18.8 17.7 27.3.9 3.6 1.2 7.6 1.3 12.4.1 5.7-.2 12.4-2 16.9-3.1 8.9-9.9 15.6-22.6 24.3 0 0 35.7 59.3 52.9 87.3.3 1 .5 2 .6 3.1-7.9.1-15.7 0-23.5.1-18-30-36.4-59.8-54.5-89.7-2.1-3.7-5.5-10.2-5.5-10.2l13.5-6.9c9.6-5.3 15.8-10.8 18-16.5 2.5-6.5 1.4-17.6-4.2-26.2-4.6-6.1-12.3-11.5-22.5-11.6l-56.2.1-.3-20.2"/><use xlink:href="#0"/></svg>