<svg height="512" viewBox="0 0 64 64" width="512" xmlns="http://www.w3.org/2000/svg"><g id="Flat"><g id="Color"><g><g><path d="m51.341 40.732a1 1 0 0 1 -.5-1.866l7.794-4.5-.5-.866a1 1 0 1 1 1.732-1l1 1.732a1 1 0 0 1 -.367 1.368l-8.66 5a1 1 0 0 1 -.499.132z" fill="#93999a"/><rect fill="#f9e109" height="12" rx="2" transform="matrix(.866 -.5 .5 .866 -15.148 32.323)" width="12" x="46.742" y="38.428"/><path d="m58.865 43.033a6 6 0 0 1 -7.319-2.605l-.969-1.678-4.3 2.482a2 2 0 0 0 -.732 2.732l4 6.928a2 2 0 0 0 2.732.732l6.928-4a2 2 0 0 0 .732-2.732z" fill="#fcbc04"/><circle cx="52.742" cy="44.428" fill="#f89c8d" r="2"/><path d="m52.268 44a1.988 1.988 0 0 1 -.212-1.446 2.091 2.091 0 0 0 -.314.142 2 2 0 1 0 2.944 2.178 2 2 0 0 1 -2.418-.874z" fill="#f8664f"/></g><path d="m39.804 3-12 20.785 9.526 5.5-.732-2.732 2.732-.732-1.598-3.233 2.732-.732-1.598-3.232 2.732-.732-1.598-3.232 2.732-.732-.732-2.732 2.732-.732.268-4.464z" fill="#d0d8da"/><path d="m38.866 18.624.307-.082a4.99 4.99 0 0 1 -.869-6.088l4.469-7.74-2.973-1.714-12 20.785 9.526 5.5-.726-2.732 2.732-.733-1.6-3.232 2.732-.732z" fill="#93999a"/><g><path d="m3.66 38.464h20v8h-20z" fill="#84d2f4" transform="matrix(.866 .5 -.5 .866 23.062 -1.141)"/><path d="m13.648 37.838a4.987 4.987 0 0 1 -6.658 1.59l-2.343-1.353-1.647 2.853 17.32 10 4-6.928z" fill="#57b7eb"/><path d="m11.33 36.5-2 3.464a1 1 0 1 1 -1.732-1l2-3.464z" fill="#f9e109"/><path d="m14.794 38.5-2 3.464a1 1 0 1 1 -1.732-1l2-3.464z" fill="#f9e109"/><g fill="#fcbc04"><path d="m9.23 40.09a.957.957 0 0 1 -.77.37 1.009 1.009 0 0 1 -.5-.13 1 1 0 0 1 -.48-.66 4.536 4.536 0 0 0 1.75.42z"/><path d="m14.79 38.5-2 3.46a.97.97 0 0 1 -.86.5 1 1 0 0 1 -.87-1.5l.89-1.53a4.958 4.958 0 0 0 1.7-1.59z"/></g></g><g><path d="m10.581 12.042h11v10h-11z" fill="#d0d8da" transform="matrix(.707 -.707 .707 .707 -7.341 16.363)"/><path d="m5.95 20.174h4v10h-4z" fill="#d0d8da" transform="matrix(.707 -.707 .707 .707 -15.472 12.995)"/><path d="m8.778 19.346h4v6h-4z" fill="#656b76" transform="matrix(.707 -.707 .707 .707 -12.644 14.166)"/><path d="m27.042 10.325-.065.018a6.934 6.934 0 0 0 -4.867 4.867l-.018.065-4.243-4.243a6.937 6.937 0 0 1 8.008-1.3z" fill="#d0d8da"/><path d="m24.042 17.295h6v20h-6z" fill="#57b7eb" transform="matrix(.707 -.707 .707 .707 -11.381 27.116)"/><g fill="#93999a"><path d="m18.556 17.639a4 4 0 0 1 -5.657 0l-2.242-2.239-2 2 7.071 7.071 7.778-7.778-2-2z"/><path d="m7.95 26-3.95-3.947-1 1 7.071 7.071 2.829-2.824-1.03-1.034a2.991 2.991 0 0 1 -3.92-.266z"/><path d="m24.877 9.336a6.949 6.949 0 0 0 -1.832 1.854 1.778 1.778 0 0 1 -2.751.287l-1.329-1.329a6.892 6.892 0 0 0 -1.116.884l4.243 4.243.017-.065a6.937 6.937 0 0 1 4.868-4.867l.065-.018-1.185-.592a6.959 6.959 0 0 0 -.98-.397z"/></g><path d="m25.234 21.245-1.268 1.268a1.379 1.379 0 0 1 -1.949 0 1.38 1.38 0 0 1 0-1.95l1.267-1.263-1.192-1.2-4.243 4.243 14.142 14.145 4.243-4.243z" fill="#4891d3"/></g><g><path d="m40.104 19.896h6v22h-6z" fill="#93999a" transform="matrix(.707 .707 -.707 .707 34.472 -21.43)"/><path d="m47.675 22.082-4.914 4.918a7.845 7.845 0 0 0 .586.657 7.962 7.962 0 0 0 4.934 2.309l4.719-4.727-1.5-1.5-1.086 1.086z" fill="#656b76"/><path d="m60.367 17.876-5.949 5.949-4.243-4.243 5.949-5.949a8 8 0 1 0 4.243 4.243z" fill="#d0d8da"/><path d="m59.66 22.653a7.994 7.994 0 0 1 -13.65-5.53 7.993 7.993 0 1 0 14.97 3.763 7.922 7.922 0 0 1 -1.32 1.767z" fill="#93999a"/></g><g><path d="m53.91 61h-43.82a4 4 0 0 1 -3.424-6.068l21.91-36.265a4 4 0 0 1 6.848 0l21.91 36.265a4 4 0 0 1 -3.424 6.068z" fill="#f9e109"/><path d="m54.354 50h-10.354a12 12 0 0 1 -12-12v-21.265a3.965 3.965 0 0 0 -3.424 1.932l-21.91 36.265a4 4 0 0 0 3.424 6.068h43.82a4 4 0 0 0 3.424-6.068z" fill="#fcbc04"/><path d="m32 47a2.114 2.114 0 0 1 -2.111-2l-.723-13a2.839 2.839 0 0 1 2.834-3 2.839 2.839 0 0 1 2.834 3l-.723 13a2.114 2.114 0 0 1 -2.111 2z" fill="#f8664f"/><g fill="#cc5144"><circle cx="32" cy="53" r="2"/><path d="m29.889 45a2.114 2.114 0 0 0 4.222 0l.011-.2a11.932 11.932 0 0 1 -2.122-6.8v-9a2.839 2.839 0 0 0 -2.834 3z"/></g></g></g></g></g></svg>